HIERARCHY
ROOT SpineBase
{
  OFFSET 0.000000 0.000000 0.000000
  CHANNELS 6 Xposition Yposition Zposition Zrotation Xrotation Yrotation
  JOINT SpineMid
  {
    OFFSET 0.000000 31.276461 0.000000
    CHANNELS 3 Zrotation Xrotation Yrotation
    JOINT SpineShoulder
    {
      OFFSET 0.359844 23.205425 -0.838225
      CHANNELS 3 Zrotation Xrotation Yrotation
      JOINT Neck
      {
        OFFSET 0.234330 7.684573 -0.641635
        CHANNELS 3 Zrotation Xrotation Yrotation
        JOINT Head
        {
          OFFSET 3.972712 13.560642 -0.466762
          CHANNELS 3 Zrotation Xrotation Yrotation
          End Site
          {
            OFFSET 0 0 0
          }
        }
      }
      JOINT ShoulderLeft
      {
        OFFSET -13.572924 -1.263734 -11.283155
        CHANNELS 3 Zrotation Xrotation Yrotation
        JOINT ElbowLeft
        {
          OFFSET -6.280727 -23.406121 -2.914087
          CHANNELS 3 Zrotation Xrotation Yrotation
          JOINT WristLeft
          {
            OFFSET 3.650476 -19.573633 -2.690563
            CHANNELS 3 Zrotation Xrotation Yrotation
            JOINT HandLeft
            {
              OFFSET 2.994705 -5.395432 0.982219
              CHANNELS 3 Zrotation Xrotation Yrotation
              JOINT HandTipLeft
              {
                OFFSET 0.861782 -7.222352 -1.554308
                CHANNELS 3 Zrotation Xrotation Yrotation
                End Site
                {
                  OFFSET 0 0 0
                }
              }
              JOINT ThumbLeft
              {
                OFFSET -4.298465 -0.007254 0.044758
                CHANNELS 3 Zrotation Xrotation Yrotation
                End Site
                {
                  OFFSET 0 0 0
                }
              }
            }
          }
        }
      }
      JOINT ShoulderRight
      {
        OFFSET 15.405846 -4.104714 10.298452
        CHANNELS 3 Zrotation Xrotation Yrotation
        JOINT ElbowRight
        {
          OFFSET 1.397896 -26.767176 0.432460
          CHANNELS 3 Zrotation Xrotation Yrotation
          JOINT WristRight
          {
            OFFSET 0.839309 -17.515652 -8.048539
            CHANNELS 3 Zrotation Xrotation Yrotation
            JOINT HandRight
            {
              OFFSET 0.002081 -5.363967 -2.296128
              CHANNELS 3 Zrotation Xrotation Yrotation
              JOINT HandTipRight
              {
                OFFSET 1.002355 -6.519061 -3.580717
                CHANNELS 3 Zrotation Xrotation Yrotation
                End Site
                {
                  OFFSET 0 0 0
                }
              }
              JOINT ThumbRight
              {
                OFFSET 2.811413 -0.950171 0.910915
                CHANNELS 3 Zrotation Xrotation Yrotation
                End Site
                {
                  OFFSET 0 0 0
                }
              }
            }
          }
        }
      }
    }
  }
  JOINT HipLeft
  {
    OFFSET -5.116023 1.261798 -7.364981
    CHANNELS 3 Zrotation Xrotation Yrotation
    JOINT KneeLeft
    {
      OFFSET -8.134467 -31.509248 -0.728350
      CHANNELS 3 Zrotation Xrotation Yrotation
      JOINT AnkleLeft
      {
        OFFSET -6.053551 -35.790336 11.098158
        CHANNELS 3 Zrotation Xrotation Yrotation
        JOINT FootLeft
        {
          OFFSET 6.381667 -3.186417 -10.486633
          CHANNELS 3 Zrotation Xrotation Yrotation
          End Site
          {
            OFFSET 0 0 0
          }
        }
      }
    }
  }
  JOINT HipRight
  {
    OFFSET 7.305637 0.417919 0.473454
    CHANNELS 3 Zrotation Xrotation Yrotation
    JOINT KneeRight
    {
      OFFSET 0.497832 -34.256427 0.429848
      CHANNELS 3 Zrotation Xrotation Yrotation
      JOINT AnkleRight
      {
        OFFSET -4.981626 -33.355579 8.599470
        CHANNELS 3 Zrotation Xrotation Yrotation
        JOINT FootRight
        {
          OFFSET 6.171744 -3.173990 -10.551847
          CHANNELS 3 Zrotation Xrotation Yrotation
          End Site
          {
            OFFSET 0 0 0
          }
        }
      }
    }
  }
}
MOTION
Frames: 6
Frame Time: 0.033333
-102.908364 74.981101 324.339099 -0.000000 0.000000 -32.253136 0.000000 0.000000 32.253136 -0.000000 0.000000 0.000000 -0.000000 0.000000 0.000000 0.000000 0.000000 0.000000 -0.000000 0.000000 0.000000 -0.000000 0.000000 0.000000 -0.000000 0.000000 0.000000 -0.000000 0.000000 0.000000 0.000000 0.000000 0.000000 0.000000 0.000000 0.000000 -0.000000 0.000000 0.000000 -0.000000 0.000000 0.000000 -0.000000 0.000000 0.000000 -0.000000 0.000000 0.000000 0.000000 0.000000 0.000000 0.000000 0.000000 0.000000 0.000000 0.000000 32.253136 -0.000000 0.000000 0.000000 -0.000000 0.000000 0.000000 0.000000 0.000000 0.000000 0.000000 0.000000 32.253136 -0.000000 0.000000 0.000000 -0.000000 0.000000 0.000000 0.000000 0.000000 0.000000
-101.989495 74.994502 324.331772 -0.076742 0.159404 -32.469368 0.150322 -0.093287 32.469597 -0.000000 0.000000 0.000000 1.297690 1.206138 -0.323543 0.000000 0.000000 0.000000 -0.000000 0.000000 0.000000 1.990039 -0.139628 -0.296280 -4.886181 1.044729 0.321187 8.133850 1.874775 -0.796826 0.000000 0.000000 0.000000 0.000000 0.000000 0.000000 -0.000000 0.000000 0.000000 -0.000000 0.000000 0.000000 -3.753407 0.744197 1.627339 -1.637151 -5.381028 0.348578 0.000000 0.000000 0.000000 0.000000 0.000000 0.000000 0.150322 -0.093287 32.469597 -0.898495 0.061696 -0.288235 0.898795 -0.057168 0.289167 0.000000 0.000000 0.000000 -0.408950 -1.039646 32.444530 0.979709 0.498537 0.015275 -0.000000 0.000000 0.000000 0.000000 0.000000 0.000000
-101.151324 74.998668 324.335068 -0.171747 0.324640 -32.630735 0.319694 -0.180787 32.631726 -0.000000 0.000000 0.000000 2.434532 2.300673 -0.643620 0.000000 0.000000 0.000000 -0.560828 0.795701 -0.139497 4.079695 -1.040492 -0.324850 -8.806741 1.837976 0.594758 14.650103 3.184285 -1.433210 0.000000 0.000000 0.000000 0.000000 0.000000 0.000000 -0.000000 0.000000 0.000000 -0.237996 -1.145820 0.052320 -6.958050 2.617267 3.245315 -2.866937 -9.806453 0.137167 0.000000 0.000000 0.000000 0.000000 0.000000 0.000000 0.319694 -0.180787 32.631726 -1.700578 0.128282 -0.545976 1.701727 -0.112017 0.549544 0.000000 0.000000 0.000000 -0.725187 -1.998410 32.574446 1.859308 0.968682 0.021688 -0.000000 0.000000 0.000000 0.000000 0.000000 0.000000
-100.393851 74.993598 324.348987 -0.284972 0.495796 -32.736106 0.507826 -0.262935 32.738504 -0.036919 1.027695 -0.034116 3.443384 2.262542 -0.856761 0.000000 0.000000 0.000000 -0.743046 0.078025 -0.170796 5.366106 -1.429182 -0.381607 -11.825586 2.423956 0.794783 19.624307 3.962589 -1.877987 0.000000 0.000000 0.000000 0.000000 0.000000 0.000000 0.037537 -1.027672 0.034783 -0.351465 -1.563600 0.082304 -9.937498 3.759144 4.760633 -3.756022 -13.300183 -0.395495 0.000000 0.000000 0.000000 0.000000 0.000000 0.000000 -0.154999 -1.096798 32.842263 -1.400840 0.544282 -0.874767 2.412732 -0.165952 0.782257 0.000000 0.000000 0.000000 -0.950632 -2.872062 32.645040 2.636105 1.408912 0.021137 -0.000000 0.000000 0.000000 0.000000 0.000000 0.000000
-99.717077 74.979294 324.373529 -0.416405 0.672968 -32.784587 0.024806 0.385136 32.767416 0.076704 0.340601 -0.026617 4.328729 2.850011 -1.095874 0.000000 0.000000 0.000000 -0.848446 0.033590 -0.204102 6.161158 -1.729193 -0.387991 -14.003955 2.837456 0.906638 23.164898 4.248029 -2.120075 0.000000 0.000000 0.000000 0.000000 0.000000 0.000000 0.111276 -1.323795 0.050898 -0.464138 -1.900606 0.115397 -12.546179 4.836364 6.154157 -4.351368 -15.934992 -1.051304 0.000000 0.000000 0.000000 0.000000 0.000000 0.000000 -0.114070 -1.412715 32.922558 -1.752089 0.729293 -1.102367 3.035191 -0.220206 0.988291 0.000000 0.000000 0.000000 -1.087082 -3.657519 32.658343 2.852214 2.596649 -0.200950 0.458404 -0.776939 0.237055 0.000000 0.000000 0.000000
-99.121001 74.955754 324.408693 -0.566059 0.856259 -32.775527 0.026596 0.438271 32.753499 0.092509 0.386874 -0.035070 5.083903 3.359467 -1.307718 0.000000 0.000000 0.000000 -0.883125 -0.046406 -0.224778 6.480270 -1.941934 -0.355145 -15.398200 3.103644 0.922833 25.370521 4.063956 -2.161745 0.000000 0.000000 0.000000 0.000000 0.000000 0.000000 0.215519 -1.596929 0.069621 -0.577834 -2.168169 0.152038 -14.773883 5.880138 7.403173 -4.669285 -17.773831 -1.674410 0.000000 0.000000 0.000000 0.000000 0.000000 0.000000 -0.029211 -1.704240 32.944463 -2.049947 0.914762 -1.300674 3.571912 -0.275866 1.168478 0.000000 0.000000 0.000000 -1.136151 -4.352785 32.616249 3.219230 3.166695 -0.277148 0.658883 -0.968215 0.319620 0.000000 0.000000 0.000000
